<svg>
    <use xlink:href="#ei_arrow-right">
        <symbol viewBox="0 0 50 36" id="ei_arrow-right" xmlns="http://www.w3.org/2000/svg"><g clip-path="url(#cla)"><path d="M8.4 18c0-9.4 7.6-17 17-17s17 7.6 17 17-7.6 17-17 17-17-7.6-17-17zm32 0c0-8.3-6.7-15-15-15s-15 6.7-15 15 6.7 15 15 15 15-6.7 15-15z"></path><path d="M15.7 17.7l1.4-1.4 8.3 8.3 8.3-8.3 1.4 1.4-9.7 9.7-9.7-9.7z"></path><path d="M26.4 9v17h-2V9h2z"></path></g><defs><clipPath id="cla"><path fill="#fff" transform="rotate(90 24.75 25.25)" d="M0 0h35v50H0z"></path></clipPath></defs></symbol>
    </use>
</svg>