<svg class="icon icon-help" data-light="support" data-dark="popup-help" data-slotoshi="headphones" data-flint="flint-headphones">
<use xlink:href="#popup-help">
<symbol viewBox="0 0 23 23" id="popup-help" xmlns="http://www.w3.org/2000/svg">
<g clip-path="url(#clip0)">
    <path d="M22.695 15.566a7.457 7.457 0 00-4.09-6.64c-.076 5.472-4.513 9.909-9.985 9.985a7.457 7.457 0 006.64 4.09c1.339 0 2.64-.357 3.783-1.034l3.62 1.001-1.002-3.619a7.408 7.408 0 001.034-3.783z"></path>
    <path d="M17.564 8.782C17.564 3.94 13.624 0 8.782 0 3.94 0 0 3.94 0 8.782a8.75 8.75 0 001.218 4.464L.032 17.532l4.286-1.185a8.754 8.754 0 004.464 1.217c4.843 0 8.782-3.94 8.782-8.782zM7.434 6.738H6.088a2.698 2.698 0 012.695-2.695 2.698 2.698 0 012.695 2.695c0 .755-.319 1.48-.876 1.99L9.456 9.774v1.051H8.108V9.182l1.583-1.449a1.35 1.35 0 00-.909-2.342 1.35 1.35 0 00-1.347 1.347zm.674 5.436h1.348v1.348H8.108v-1.348z"></path>
</g>
</symbol>
</use>
</svg>