<svg class="icon icon-info-popup">
    <use xlink:href="#info-popup">
        <symbol viewBox="0 0 24 24" id="info-popup" xmlns="http://www.w3.org/2000/svg"><path fill-rule="evenodd" clip-rule="evenodd" d="M12 3a9 9 0 100 18 9 9 0 000-18zM1 12C1 5.925 5.925 1 12 1s11 4.925 11 11-4.925 11-11 11S1 18.075 1 12z"></path><path fill-rule="evenodd" clip-rule="evenodd" d="M12 11a1 1 0 011 1v4a1 1 0 11-2 0v-4a1 1 0 011-1zm-1-3a1 1 0 011-1h.01a1 1 0 110 2H12a1 1 0 01-1-1z"></path></symbol>
    </use>
</svg>