<svg class="icon">
    <use xlink:href="#coin-btc">
        <symbol fill="none" viewBox="0 0 25 24" id="coin-btc" xmlns="http://www.w3.org/2000/svg">
            <path d="M.663 10.393c.888-5.265 4.438-9.025 9.49-10.12.34-.068.682-.136 1.023-.273h2.594c.068 0 .137.068.205.068 6.622.89 11.195 6.701 10.444 13.334-.546 4.786-3.959 8.82-8.533 10.12-.682.205-1.433.341-2.116.478h-2.526c-.068 0-.136-.068-.204-.068-5.257-.752-9.216-4.376-10.308-9.573-.478-2.325-.069-3.966-.069-3.966zM12.2 19.42c.205-.752.41-1.505.546-2.12.751.069 1.434.137 2.116.069 1.366-.069 2.185-.821 2.594-2.257.342-1.23 0-1.983-1.16-2.803 0 0 0-.069-.068-.069.819-.342 1.16-.615 1.365-1.23.478-1.163.205-2.257-.887-3.009-.478-.342-1.024-.547-1.57-.82.136-.684.34-1.368.546-2.12-.478-.137-.888-.205-1.298-.342-.204.752-.34 1.367-.546 2.12-.34-.069-.682-.137-1.024-.274.205-.752.342-1.436.478-2.12-.478-.136-.887-.205-1.297-.341-.204.752-.341 1.435-.546 2.12l-2.662-.616c-.137.478-.205.957-.341 1.367.34.069.682.205 1.023.274.41.137.615.41.547.889-.478 1.914-.956 3.76-1.434 5.675-.068.342-.341.479-.683.41-.273-.068-.614-.136-.887-.205-.205.479-.41.957-.614 1.504.887.205 1.774.479 2.662.684-.205.752-.341 1.436-.546 2.188.478.137.887.205 1.297.274.205-.753.341-1.436.546-2.12.341.068.683.205 1.024.273-.205.753-.341 1.436-.546 2.12.478.274.887.342 1.365.479z" fill="#F6931B"></path>
            <path d="M10.767 15.18c.273-1.095.478-1.983.75-3.01.956.206 1.844.343 2.663.89.614.41.819.889.683 1.504-.205.547-.683.957-1.366.957-.887-.068-1.775-.205-2.73-.342zm1.024-4.24c.273-1.026.477-1.846.682-2.667.82.137 1.639.274 2.321.82.478.343.615.821.478 1.3-.136.479-.546.82-1.092.82-.82-.068-1.57-.204-2.39-.273z" fill="#F6941D"></path>
        </symbol>
    </use>
</svg>