<svg class="icon">
    <use xlink:href="#coin-ltc">
        <symbol fill="none" viewBox="0 0 25 24" id="coin-ltc" xmlns="http://www.w3.org/2000/svg">
            <path d="M12.5 0C5.873 0 .5 5.373.5 12s5.373 12 12 12 12-5.373 12-12c-.014-6.627-5.373-12-12-12zm.18 12.386l-1.24 4.216h6.667c.235 0 .386.22.331.44l-.579 1.998a.459.459 0 01-.44.33H7.223l1.722-5.827-1.9.593.413-1.378 1.915-.593 2.424-8.183a.459.459 0 01.441-.331h2.577c.234 0 .385.22.33.44l-2.053 6.917 1.902-.592-.414 1.391-1.9.579z" fill="#345D9D"></path>
        </symbol>
    </use>
</svg>