<svg class="icon icon-fair-safe-gold" data-light="casino_ru_light" data-dark="casino_ru">
    <use xlink:href="#casino_ru">
        <symbol fill="none" viewBox="0 0 87 14" id="casino_ru" xmlns="http://www.w3.org/2000/svg">
            <g clip-path="url(#bja)">
                <mask id="bja" style="mask-type:luminance" maskUnits="userSpaceOnUse" x="0" y="0" width="87" height="14">
                    <path d="M0 .81h87v12.38H0V.81z" fill="#fff"></path>
                </mask>
                <g mask="url(#bja)" fill-rule="evenodd" clip-rule="evenodd">
                    <path d="M8.75 2.062a4.437 4.437 0 00-1.735-.933A7.381 7.381 0 004.935.83c-.566 0-1.13.08-1.674.237a4.665 4.665 0 00-1.482.722A3.76 3.76 0 00.712 3.004a3.505 3.505 0 00-.409 1.733v4.578a3.446 3.446 0 00.417 1.733c.267.477.637.89 1.083 1.207.457.323.968.561 1.509.705.545.15 1.108.227 1.673.229a6.757 6.757 0 002.038-.31 4.872 4.872 0 001.708-.925l-1.3-2.182a3.76 3.76 0 01-1.25.677 4.179 4.179 0 01-1.144.168 2.391 2.391 0 01-.693-.106c-.23-.07-.444-.18-.633-.326a1.661 1.661 0 01-.467-.58 1.96 1.96 0 01-.182-.888V5.283a1.96 1.96 0 01.182-.889c.11-.225.266-.424.46-.58a1.86 1.86 0 01.623-.326 2.37 2.37 0 01.694-.106c.402.003.801.06 1.188.167.446.132.857.364 1.205.678L8.75 2.062zm8.843 11.003h2.948L16.396.935h-2.843L9.34 13.065h2.964l.712-2.394h3.85l.727 2.394zm-3.642-5.51l.954-3.345h.07l.954 3.345.242.827h-2.462l.242-.827zm16.77.836a2.473 2.473 0 00-.495-1.003 3.685 3.685 0 00-1.066-.863 8.15 8.15 0 00-1.838-.712 35.947 35.947 0 01-1.232-.379 4.704 4.704 0 01-.815-.343 1.33 1.33 0 01-.442-.36.703.703 0 01-.13-.415.779.779 0 01.096-.427.75.75 0 01.311-.303 2.24 2.24 0 011.067-.22c.474 0 .948.047 1.413.14a4.649 4.649 0 011.552.687l1.232-2.253a5.722 5.722 0 00-2.108-.933 10.941 10.941 0 00-2.055-.194 6 6 0 00-1.76.248 4.11 4.11 0 00-1.387.712c-.382.303-.69.688-.902 1.126-.22.465-.329.974-.32 1.488a3.65 3.65 0 00.225 1.356c.147.37.376.704.669.975.32.293.685.53 1.083.704.478.212.97.386 1.474.52.428.116.853.245 1.273.387.284.093.56.21.824.352.175.089.326.218.442.379a.835.835 0 01.035.835 1.01 1.01 0 01-.33.362 1.952 1.952 0 01-.615.272 3.645 3.645 0 01-.954.106 4.378 4.378 0 01-1.552-.29 5.596 5.596 0 01-1.535-.907l-1.543 2.06c.345.31.72.585 1.119.819a5.872 5.872 0 002.323.766c.423.047.848.07 1.273.07a7.29 7.29 0 001.847-.23 4.675 4.675 0 001.526-.685 3.436 3.436 0 001.03-1.136c.264-.49.395-1.039.382-1.594a5.076 5.076 0 00-.118-1.117zM32.835.935v12.13h2.757V.935h-2.757zm8.03 5.158l2.12 3.275 2.469 3.697h2.469V.935h-2.76v6.972h-.05l-2.62-4.033L40.5.934h-2.48v12.13h2.76v-6.97h.086zm18.38-1.338a3.563 3.563 0 00-.407-1.743 3.691 3.691 0 00-1.073-1.223 4.881 4.881 0 00-1.506-.73A5.97 5.97 0 0054.573.81a6.29 6.29 0 00-1.68.229 4.714 4.714 0 00-1.497.704 3.745 3.745 0 00-1.081 1.197 3.403 3.403 0 00-.415 1.725v4.56a3.76 3.76 0 00.38 1.744c.246.483.598.904 1.03 1.232.447.336.951.586 1.49.74.577.167 1.174.25 1.774.247a6.36 6.36 0 001.782-.247 4.444 4.444 0 001.488-.74 3.63 3.63 0 001.022-1.232c.265-.54.395-1.14.381-1.743V4.755zm-2.759 3.962c.01.306-.05.61-.172.89a1.678 1.678 0 01-.443.58c-.183.149-.391.26-.615.325a2.263 2.263 0 01-1.362.001 1.88 1.88 0 01-.615-.326 1.619 1.619 0 01-.452-.58 2.044 2.044 0 01-.173-.89V5.283c-.01-.305.05-.61.174-.889.103-.225.258-.424.45-.58.184-.147.393-.257.616-.326.221-.07.453-.106.685-.106.23.002.457.037.676.106.224.066.433.177.615.325.189.159.34.357.444.581.123.279.182.584.173.89v3.433z" fill="#fff"></path>
                    <path d="M64.162 12.713c.27-.31.415-.712.408-1.127a1.534 1.534 0 00-.46-1.109 1.556 1.556 0 00-1.673-.326 1.447 1.447 0 00-.485.326c-.14.142-.252.31-.33.493a1.536 1.536 0 00-.121.616 1.583 1.583 0 00.452 1.136 1.472 1.472 0 001.11.467 1.385 1.385 0 001.1-.475zM66.86.935v12.13h2.757V8.593h1.7l1.803 4.472h2.948l-2.133-4.947c.3-.176.574-.392.815-.643.236-.244.443-.515.616-.81.167-.287.298-.594.39-.915.09-.312.137-.635.138-.96a5.07 5.07 0 00-.199-1.4 3.474 3.474 0 00-.642-1.24 3.255 3.255 0 00-1.136-.88 3.846 3.846 0 00-1.682-.335h-5.376.001zm2.757 2.483h2.044a1.366 1.366 0 011.092.398c.232.268.355.612.346.966a1.296 1.296 0 01-.883 1.317c-.18.058-.37.074-.556.047h-2.046V3.418h.003zm17.08 5.791V.935h-2.759v7.817c.01.306-.05.61-.173.889a1.67 1.67 0 01-.443.58c-.181.149-.39.26-.615.326a2.276 2.276 0 01-1.362 0 1.88 1.88 0 01-.614-.325 1.621 1.621 0 01-.452-.582 2.05 2.05 0 01-.173-.889V.936h-2.759V9.28a3.568 3.568 0 00.399 1.733 3.66 3.66 0 001.056 1.215 4.62 4.62 0 001.497.721 6.257 6.257 0 003.444-.01 4.56 4.56 0 001.497-.747 3.816 3.816 0 001.056-1.242 3.625 3.625 0 00.4-1.742z" fill="#2F8F41"></path>
                </g>
            </g>
            <defs>
                <clipPath id="bja">
                    <path fill="#fff" transform="translate(0 .5)" d="M0 0h87v13H0z"></path>
                </clipPath>
            </defs>
        </symbol>
    </use>
</svg>