<svg class="icon icon-fair-safe-gold" data-light="light-theme-fair-safe-gold" data-dark="fair-safe-gold">
    <use xlink:href="#fair-safe-gold">
    <symbol fill="none" viewBox="0 0 74 32" id="fair-safe-gold" xmlns="http://www.w3.org/2000/svg"><path d="M31.937 14.115c-.762.138-1.536.197-2.31.178-1.706 0-3.673-.889-3.673-4.231V9.6c0-3.378 1.967-4.267 3.673-4.267a14.97 14.97 0 012.337.222c.127 0 .226.054.226.178v.702c0 .08 0 .142-.171.142-.506 0-1.535-.115-2.338-.115-1.363 0-2.418.773-2.418 3.102v.462c0 2.303 1.055 3.111 2.418 3.111.794 0 1.805-.07 2.292-.115h.055a.201.201 0 01.17.055.194.194 0 01.055.167v.56c-.036.205-.162.285-.316.311zm10.36.107h-.785a.236.236 0 01-.235-.178l-.902-2.72h-3.61l-.902 2.72a.259.259 0 01-.253.178h-.821a.21.21 0 01-.212-.107.203.203 0 01-.023-.08.115.115 0 010-.08l2.572-7.733a1.53 1.53 0 01.573-.651 1.57 1.57 0 011.679 0c.25.158.45.384.573.651l2.572 7.716a.22.22 0 010 .08c.009.098-.109.204-.226.204zM38.805 6.48a.257.257 0 00-.091-.154.264.264 0 00-.171-.06.273.273 0 00-.18.056.266.266 0 00-.1.158L37 10.302h3.041L38.805 6.48zm14.439 7.742h-.767a.265.265 0 01-.231-.176.254.254 0 01-.013-.1V5.724a.237.237 0 01.146-.238.247.247 0 01.098-.02h.767a.256.256 0 01.182.076.247.247 0 01.07.182v8.196a.255.255 0 01-.143.276.266.266 0 01-.11.026zm9.846 0h-.822a.447.447 0 01-.442-.222l-4.34-6.614v6.551a.256.256 0 01-.07.177.263.263 0 01-.174.081h-.722c-.145 0-.253 0-.253-.16V5.85a.388.388 0 01.12-.271.4.4 0 01.277-.112h.767c.388 0 .46.071.569.276l4.268 6.551v.044-6.614a.26.26 0 01.074-.18.264.264 0 01.179-.078h.731a.256.256 0 01.182.076.249.249 0 01.07.182v8.071a.396.396 0 01-.25.397.413.413 0 01-.164.03zm6.65.071c-2.184 0-3.763-1.262-3.763-4.302v-.32c0-3.04 1.58-4.302 3.763-4.302 2.184 0 3.754 1.262 3.754 4.302v.32c0 3.04-1.57 4.302-3.754 4.302zm2.473-4.622c0-2.302-.902-3.173-2.473-3.173-1.57 0-2.49.888-2.49 3.173v.32c0 2.302.965 3.182 2.49 3.182 1.525 0 2.473-.889 2.473-3.182v-.32zm-24.33-.169l-1.272-.613c-.903-.525-1.327-.845-1.327-1.378 0-.755.55-1.067 1.913-1.067.542 0 1.255 0 2.13.08a.229.229 0 00.222-.126.219.219 0 00.022-.087v-.498c0-.089 0-.195-.235-.23a17.883 17.883 0 00-2.157-.152c-2.012 0-3.113.738-3.113 2.08 0 1.005.686 1.609 1.724 2.196l1.326.684c1.083.622 1.462.951 1.462 1.529 0 .889-.64 1.333-1.976 1.333-.55 0-1.453 0-2.04-.088a.229.229 0 00-.171.058.224.224 0 00-.072.164v.462c0 .142 0 .204.261.24.677.117 1.362.176 2.049.178 2.987 0 3.221-1.778 3.221-2.347-.008-.969-.54-1.618-1.967-2.418z" fill="#44BE4C"></path><path d="M40.267 15.609H35.98a.446.446 0 00-.31.124.433.433 0 00-.132.302v9.467c0 1.707-1.056 2.053-2.148 2.053s-2.202-.364-2.202-2.07V16a.433.433 0 00-.13-.3.446.446 0 00-.303-.127h-4.332a.474.474 0 00-.32.123.46.46 0 00-.149.304v9.502c0 5.565 3.98 6.409 7.391 6.409s7.382-.844 7.382-6.409V16a.451.451 0 00-.155-.281.465.465 0 00-.305-.11zm32.578 0h-4.26a.446.446 0 00-.31.124.433.433 0 00-.132.302v9.467c0 1.707-1.056 2.071-2.193 2.071s-2.202-.364-2.202-2.07V16a.432.432 0 00-.132-.302.446.446 0 00-.31-.125h-4.304a.474.474 0 00-.32.123.46.46 0 00-.15.304v9.502c0 5.565 3.98 6.409 7.391 6.409s7.382-.844 7.382-6.409V16a.452.452 0 00-.155-.281.465.465 0 00-.305-.11zm-18.698 9.804a4.487 4.487 0 001.902-1.73 4.39 4.39 0 00.624-2.474v-.427c0-4.098-2.707-5.395-7.165-5.395-1.516 0-4.801.15-5.541.266-1.191.187-1.543.498-1.543 1.84v13.76a.45.45 0 00.14.31c.087.08.201.126.32.126h4.287c.117 0 .23-.046.312-.128a.432.432 0 00.13-.308V26.17h1.435l2.617 5.084c.108.223.198.436.595.436h4.594a.39.39 0 00.361-.242.378.378 0 00.027-.15.493.493 0 00-.063-.23l-3.032-5.654zm-2.708-4.177c0 .586-.424 1.146-1.516 1.146h-2.346v-2.729h2.382c1.12 0 1.516.41 1.516 1.147l-.036.436zm-32.596-3.787c1.642 0 3.898.15 4.692.258.37.053.451-.08.451-.472v-3.84c0-.337 0-.417-.559-.577a29.019 29.019 0 00-4.963-.72h-1.146a10.985 10.985 0 00-2.166.169.76.76 0 010 .329 1.197 1.197 0 01-.713.71c-.68.287-1.38.528-2.094.72a4.497 4.497 0 01-1.534.365 1.143 1.143 0 01-.478-.089 8.743 8.743 0 00-2.645 4.294 14.011 14.011 0 00-.18 2.31v2.205c0 7.529 5.063 8.889 8.438 8.889a44.752 44.752 0 007.517-.782c.478-.107.56-.125.56-.57v-9.164a.547.547 0 00-.164-.39.564.564 0 00-.396-.16h-6.669a.528.528 0 00-.367.138.512.512 0 00-.165.35v2.285a.502.502 0 00.334.457.51.51 0 00.198.031h1.588a.172.172 0 01.116.053c.03.031.047.073.047.116v2.027a.22.22 0 01-.06.151.226.226 0 01-.148.071c-.604 0-2.22.063-2.418.063-.803 0-2.103-.107-2.103-3.556v-2.25c0-2.88 1.624-3.502 5.027-3.422z" fill="#fff"></path><path d="M9.737 13.146a.666.666 0 000-.124v-.862c-3.33 2.79-3.474 5.11-3.285 6.222 0 .16.262.258.47.258.207 0 .27-.054.297-.16a9.29 9.29 0 012.708-4.445 1.212 1.212 0 01-.19-.889zM3.926 4.284h.072c.704-.4 1.741-.888 2.472-1.235.127-.41.262-.818.407-1.218A7.437 7.437 0 003.808 4.09a.14.14 0 00.055.173.14.14 0 00.063.022zm6.551-2.693c.514-.044.993-.08 1.48-.08a9.029 9.029 0 013.15.551h.08c.406-.096.82-.146 1.237-.15.358.004.714.04 1.065.106a.146.146 0 00.135-.085.14.14 0 00-.027-.155 10.227 10.227 0 00-5.243-1.12c-.96 0-1.92.068-2.87.204.307.214.65.462.993.73zm3.827.613a5.92 5.92 0 00-2.211-.337h-1.2c.496.382 1.01.79 1.507 1.19.608-.26 1.235-.474 1.877-.64.162 0 .162-.15.027-.213zm-1.21 1.466c.984.81 1.805 1.494 2.103 1.779 1.97-.084 3.926.342 5.676 1.235a.12.12 0 00.072 0 .146.146 0 00.1-.038.141.141 0 00.045-.095 3.51 3.51 0 00-.215-1.727 3.557 3.557 0 00-1.021-1.42 5.309 5.309 0 00-2.97-.889 7.58 7.58 0 00-3.79 1.156zm-7.21 7.094a2.987 2.987 0 01-.659-2.587v-.293H5.18c-4.9 4.694-3.61 8.32-2.085 9.974a.146.146 0 00.23-.038.14.14 0 00.014-.087 6.452 6.452 0 01.46-4.07 15.592 15.592 0 012.085-2.899zM20.945 7.52a10.338 10.338 0 00-5.288-1.547 2.64 2.64 0 01.208 2.489 3.21 3.21 0 01-.542.889 7.745 7.745 0 012.898.734 7.642 7.642 0 012.39 1.773.128.128 0 00.073.062c.406.044.568.07 1.02.142.099 0 .153-.115.135-.213-.18-1.183-1.309-1.698-1.985-2.258a.141.141 0 01.09-.24h.054c1.083.391 1.48 1.555 1.967 1.671.036 0 .07-.014.096-.039a.132.132 0 00.04-.094c.144-1.885-.343-2.89-1.156-3.37zM14.7 10.115h-.415a.156.156 0 01-.09 0c-.16.065-.326.113-.496.143.622.746 1.11 1.324 1.254 1.52v.062h.054a11.12 11.12 0 012.274-.187c.569 0 1.174 0 1.805.08a.145.145 0 00.129-.088.14.14 0 00-.03-.152 6.94 6.94 0 00-4.485-1.378zM1.534 8.791a.145.145 0 00.1-.044 17.708 17.708 0 014.132-3.174c.163-.649.352-1.36.569-2.097a27.657 27.657 0 00-3.294 2.133A4.735 4.735 0 001.39 8.658a.14.14 0 00.045.095.146.146 0 00.099.038z" fill="#44BE4C"></path><path d="M5.415 6.951l.18-.773a14.726 14.726 0 00-3.998 3.35c-.379.543-1.606 2.019-.668 3.707a.125.125 0 00.118.072.137.137 0 00.095-.03.133.133 0 00.05-.086c.225-1.2.92-3.511 4.223-6.24zm3.447 5.04a2.51 2.51 0 01-.37 0 3.506 3.506 0 01-2.13-.782 8.73 8.73 0 00-2.21 3.902c-.362 2.062.09 3.796 1.687 4.773a.109.109 0 00.072 0 .138.138 0 00.116-.053.132.132 0 00.02-.124c-1.183-3.938 1.245-6.151 2.815-7.716z" fill="#44BE4C"></path><path d="M13.175 10.302h-.045a3.52 3.52 0 01-1.868-.587 3.548 3.548 0 01-1.083 1.725v1.555c0 .223-.171.89.605.89a4.357 4.357 0 001.399-.339c.7-.19 1.387-.424 2.057-.702.28-.124.677-.418.352-.889-.153-.16-.776-.889-1.417-1.653z" fill="#FCEE21"></path><path d="M8.492 11.555c1.1 0 2.166-.737 2.5-2.613.58.541 1.34.857 2.138.889 2.076 0 3.376-2.533 1.85-4.027C14.556 5.378 9.178.898 7.914.32a45.508 45.508 0 00-2.3 7.866 2.882 2.882 0 00.662 2.329 2.984 2.984 0 002.216 1.04z" fill="#FCEE21"></path><path d="M6.127 19.938a.21.21 0 01-.18-.053c-1.534-.952-2.148-2.623-1.742-4.872a9.073 9.073 0 012.78-4.444c.464-.411.955-.791 1.47-1.138a1.554 1.554 0 01-.153-.329 1.648 1.648 0 01-.27.347c-.479.436-.704.542-.903.542h-.045a4.473 4.473 0 00-.397.427l-.045.044a16.911 16.911 0 00-2.374 3.263 6.198 6.198 0 00-.433 3.848.333.333 0 01-.072.276.333.333 0 01-.35.126.334.334 0 01-.12-.055l-.063-.053C1.362 15.777.902 12.07 5.315 7.822A41.01 41.01 0 017.3 6.373a.877.877 0 010-.15l-1.037.71c-2.6 2.018-4.097 4.143-4.458 6.294a.345.345 0 01-.117.208.355.355 0 01-.409.038.358.358 0 01-.133-.13c-.903-1.627.135-3.076.568-3.698l.09-.134a14.265 14.265 0 014.982-3.849c.148-.055.298-.103.451-.142v-.089A15.749 15.749 0 002.13 8.987a.333.333 0 01-.252.115.364.364 0 01-.25-.097.353.353 0 01-.111-.24 4.77 4.77 0 011.678-3.138 22.018 22.018 0 012.482-1.645 36.34 36.34 0 00-1.308.685.484.484 0 01-.163.044.383.383 0 01-.316-.178.317.317 0 010-.355 7.67 7.67 0 013.439-2.4c.108-.034.22-.055.333-.062.245.011.484.072.704.177h.226a.566.566 0 01-.117-.444.345.345 0 01.243-.267A16.912 16.912 0 0112.471.8a10.29 10.29 0 015.226 1.12.374.374 0 01.153.4.338.338 0 01-.128.183.347.347 0 01-.215.066h-.063a5.494 5.494 0 00-1.002-.098 5.09 5.09 0 00-1.164.142h-.072a.275.275 0 01-.117 0 5.202 5.202 0 00-.497-.142.293.293 0 01.1.25.335.335 0 01-.083.2.344.344 0 01-.188.11c-.885.225-1.737.56-2.536.996l.379.364a8.194 8.194 0 014.702-1.778 5.325 5.325 0 012.969.943c.469.4.831.908 1.056 1.478.225.57.305 1.185.234 1.793a.354.354 0 01-.112.24.364.364 0 01-.249.098.274.274 0 01-.18-.054 11.169 11.169 0 00-5.605-1.182h-1.2a.275.275 0 01.072.133c.479 0 .903-.053 1.327-.053 2.01-.043 3.99.494 5.694 1.547.957.613 1.354 1.724 1.273 3.493a.37.37 0 01-.107.236.381.381 0 01-.236.11h-.09c.082.162.134.337.153.516a.448.448 0 01-.108.347.332.332 0 01-.253.116h-.063l-.993-.152a.38.38 0 01-.225-.142 7.44 7.44 0 00-2.367-1.702 7.538 7.538 0 00-2.85-.671l-.514.382h.163a7.068 7.068 0 014.512 1.369.339.339 0 01.106.244.334.334 0 01-.106.245.361.361 0 01-.28.115c-.563-.06-1.13-.09-1.697-.088-.73-.01-1.462.044-2.183.16a2.736 2.736 0 01-.388.088 8.423 8.423 0 00-4.544 2.045 8.217 8.217 0 00-2.55 4.23.484.484 0 01-.496.293.621.621 0 01-.408-.094.605.605 0 01-.25-.331c-.2-1.165-.046-3.556 3.383-6.374l-.153-.284-.135.15c-.163.179-.38.365-.569.579-1.516 1.502-3.61 3.555-2.509 7.19a.35.35 0 01-.063.312c-.108-.053-.18 0-.298 0z" fill="#44BE4C"></path><path d="M10.892 14.062a.91.91 0 01-.631-.204.883.883 0 01-.18-.738v-.151a3.695 3.695 0 010-.631c0-.684 0-1.778-.082-3.556V8.65l.108-.08c.38-.267.814-.449 1.273-.533a.494.494 0 01.36.15c.082.09.38.427.74.89.903 1.022 2.085 2.444 2.311 2.755a.779.779 0 01.153.605.986.986 0 01-.568.55c-.658.266-1.33.498-2.013.694-.459.223-.96.353-1.47.382z" fill="#FCEE21"></path><path d="M11.37 8.293a.192.192 0 01.181.071c.235.303 2.708 3.183 3.05 3.627.343.444-.08.729-.351.845-.65.27-1.316.502-1.995.693a4.394 4.394 0 01-1.354.347c-.748 0-.568-.623-.586-.89-.018-.266 0-1.644-.09-4.168a2.99 2.99 0 011.146-.507v-.018zm0-.4a3.202 3.202 0 00-1.38.57l-.199.132v.232c.09 1.733.09 2.862.073 3.555v.782a1.156 1.156 0 00.243.89 1.032 1.032 0 00.767.284 4.834 4.834 0 001.498-.356 17.798 17.798 0 002.04-.711 1.228 1.228 0 00.713-.693.875.875 0 00-.171-.791c-.208-.294-1.21-1.476-2.329-2.765-.37-.427-.677-.782-.73-.889a.684.684 0 00-.524-.258v.018z" fill="#000"></path><path d="M8.645 11.787a3.262 3.262 0 01-1.34-.33 3.214 3.214 0 01-1.078-.853 2.715 2.715 0 01-.596-2.356l.045-.16A41.852 41.852 0 017.887.543l.09-.195.19.089c1.263.577 6.507 4.942 6.958 5.386a2.3 2.3 0 01.514 2.667 2.676 2.676 0 01-.986 1.2 2.736 2.736 0 01-1.496.462A3.315 3.315 0 0111.2 9.44c-.37 1.476-1.272 2.347-2.554 2.347z" fill="#FCEE21"></path><path d="M8.122.631c1.245.56 6.48 4.942 6.886 5.333 1.489 1.458.207 3.92-1.805 3.92a3.237 3.237 0 01-2.094-.889c-.352 1.858-1.39 2.56-2.473 2.56a2.94 2.94 0 01-1.193-.278 2.9 2.9 0 01-.97-.738 2.82 2.82 0 01-.652-2.272A47.995 47.995 0 018.077.622l.045.009zM7.869.053l-.162.4c-.975 2.459-1.721 5-2.23 7.591l-.044.17a2.97 2.97 0 00.65 2.524c.31.384.702.697 1.148.918a3.5 3.5 0 001.432.362 2.876 2.876 0 001.751-.66 2.8 2.8 0 00.957-1.59 3.439 3.439 0 001.805.56 2.956 2.956 0 001.627-.483 2.89 2.89 0 001.08-1.294 2.525 2.525 0 00-.541-2.88C14.871 5.218 9.646.853 8.32.24L7.87.053z" fill="#000"></path></symbol>
    </use>
</svg>