<svg class="icon icon-w-24 icon-crown" data-dark="crown" data-slotoshi="crown" data-flint="flint-star-active">
    <use xlink:href="#crown">
        <symbol viewBox="0 0 25 24" id="crown" xmlns="http://www.w3.org/2000/svg">
            <path d="M21.01 14.326l.194-1.894c.103-1.011.17-1.678.117-2.099h.02c.87 0 1.578-.746 1.578-1.666 0-.92-.707-1.667-1.58-1.667-.871 0-1.578.746-1.578 1.667 0 .416.145.797.384 1.089-.343.223-.792.695-1.468 1.405-.52.547-.78.82-1.07.863a.835.835 0 01-.473-.07c-.268-.124-.447-.462-.804-1.139L14.446 7.25c-.22-.417-.405-.766-.572-1.047.683-.368 1.15-1.117 1.15-1.98 0-1.229-.942-2.223-2.105-2.223s-2.105.995-2.105 2.222c0 .864.467 1.613 1.15 1.98-.167.282-.351.631-.572 1.048l-1.883 3.566c-.358.676-.537 1.014-.805 1.139a.835.835 0 01-.473.07c-.29-.043-.55-.317-1.07-.864-.676-.71-1.125-1.182-1.468-1.405.24-.292.384-.673.384-1.09C6.077 7.747 5.369 7 4.497 7c-.87 0-1.578.746-1.578 1.667 0 .92.707 1.666 1.579 1.666h.019c-.054.42.014 1.088.117 2.099l.193 1.894c.107 1.051.196 2.051.306 2.952h15.572c.11-.9.199-1.901.306-2.952zM11.775 22h2.29c2.985 0 4.478 0 5.474-.94.434-.412.71-1.152.908-2.116H5.392c.198.964.473 1.704.908 2.115.996.941 2.489.941 5.474.941z"></path>
        </symbol>
    </use>
</svg>