<svg class="icon" data-dark="quads" data-slotoshi="slotoshi-quads" data-flint="flint-quads">
    <use xlink:href="#quads">
        <symbol viewBox="0 0 24 24" id="quads" xmlns="http://www.w3.org/2000/svg"><path fill-rule="evenodd" clip-rule="evenodd" d="M2 3a1 1 0 011-1h7a1 1 0 011 1v7a1 1 0 01-1 1H3a1 1 0 01-1-1V3zm2 1v5h5V4H4zm9-1a1 1 0 011-1h7a1 1 0 011 1v7a1 1 0 01-1 1h-7a1 1 0 01-1-1V3zm2 1v5h5V4h-5zm-2 10a1 1 0 011-1h7a1 1 0 011 1v7a1 1 0 01-1 1h-7a1 1 0 01-1-1v-7zm2 1v5h5v-5h-5zM2 14a1 1 0 011-1h7a1 1 0 011 1v7a1 1 0 01-1 1H3a1 1 0 01-1-1v-7zm2 1v5h5v-5H4z"></path></symbol>
    </use>
</svg>