<svg class="icon icon-search" data-slotoshi="slotoshi-search-24" data-dark="search-24" data-flint="flint-search-24">
    <use xlink:href="#search-24">
        <symbol viewBox="0 0 24 25" id="search-24" xmlns="http://www.w3.org/2000/svg"><path d="M19.644 18.404c.238.237.356.525.356.865 0 .334-.121.622-.365.866a1.182 1.182 0 01-.866.365 1.14 1.14 0 01-.865-.365l-3.299-3.288a6.583 6.583 0 01-3.836 1.192 6.655 6.655 0 01-2.63-.534 6.759 6.759 0 01-2.163-1.442 6.767 6.767 0 01-1.442-2.164A6.645 6.645 0 014 11.27c0-.916.178-1.793.534-2.629a6.768 6.768 0 011.442-2.164A6.745 6.745 0 018.14 5.034a6.647 6.647 0 012.63-.534c.915 0 1.793.178 2.629.534a6.76 6.76 0 012.163 1.442 6.773 6.773 0 011.442 2.164c.356.836.534 1.713.534 2.629 0 1.41-.398 2.688-1.193 3.836l3.3 3.299zm-5.832-4.092c.843-.843 1.264-1.857 1.264-3.043 0-1.186-.421-2.2-1.264-3.043-.842-.843-1.856-1.264-3.043-1.264-1.186 0-2.2.421-3.043 1.264-.843.844-1.264 1.857-1.264 3.043 0 1.186.421 2.2 1.264 3.043s1.857 1.265 3.043 1.265c1.186 0 2.2-.422 3.043-1.265z"></path></symbol>
    </use>
</svg>