<svg class="icon icon-search" data-slotoshi="slotoshi-search-24" data-dark="search-big" data-flint="flint-search-24">
    <use xlink:href="#search-big">
        <symbol viewBox="0 0 32 32" id="search-big" xmlns="http://www.w3.org/2000/svg"><path fill-rule="evenodd" clip-rule="evenodd" d="M14.666 5.333a9.333 9.333 0 100 18.667 9.333 9.333 0 000-18.667zm-12 9.334c0-6.628 5.373-12 12-12 6.628 0 12 5.372 12 12 0 6.627-5.372 12-12 12-6.627 0-12-5.373-12-12z"></path><path fill-rule="evenodd" clip-rule="evenodd" d="M21.257 21.257c.52-.52 1.365-.52 1.886 0l5.8 5.8a1.333 1.333 0 11-1.886 1.886l-5.8-5.8a1.333 1.333 0 010-1.886z"></path></symbol>
    </use>
</svg>