<svg width="40" height="40" viewBox="0 0 40 40" fill="none" xmlns="http://www.w3.org/2000/svg">
<rect width="40" height="40" rx="20" fill="url(#paint0_linear_11458_17787)"/>
<g clip-path="url(#clip0_11458_17787)">
<path d="M20 17C19.2044 17 18.4413 17.3161 17.8787 17.8787C17.3161 18.4413 17 19.2044 17 20C17 20.7956 17.3161 21.5587 17.8787 22.1213C18.4413 22.6839 19.2044 23 20 23C20.7956 23 21.5587 22.6839 22.1213 22.1213C22.6839 21.5587 23 20.7956 23 20C23 19.2044 22.6839 18.4413 22.1213 17.8787C21.5587 17.3161 20.7956 17 20 17Z" fill="white"/>
<path fill-rule="evenodd" clip-rule="evenodd" d="M16.4 11C14.9678 11 13.5943 11.5689 12.5816 12.5816C11.5689 13.5943 11 14.9678 11 16.4V23.6C11 25.0322 11.5689 26.4057 12.5816 27.4184C13.5943 28.4311 14.9678 29 16.4 29H23.6C25.0322 29 26.4057 28.4311 27.4184 27.4184C28.4311 26.4057 29 25.0322 29 23.6V16.4C29 14.9678 28.4311 13.5943 27.4184 12.5816C26.4057 11.5689 25.0322 11 23.6 11H16.4ZM15.8 20C15.8 18.8861 16.2425 17.8178 17.0302 17.0302C17.8178 16.2425 18.8861 15.8 20 15.8C21.1139 15.8 22.1822 16.2425 22.9698 17.0302C23.7575 17.8178 24.2 18.8861 24.2 20C24.2 21.1139 23.7575 22.1822 22.9698 22.9698C22.1822 23.7575 21.1139 24.2 20 24.2C18.8861 24.2 17.8178 23.7575 17.0302 22.9698C16.2425 22.1822 15.8 21.1139 15.8 20ZM24.2 15.8H25.4V14.6H24.2V15.8Z" fill="white"/>
</g>
<defs>
<linearGradient id="paint0_linear_11458_17787" x1="3.5" y1="-9.28342e-07" x2="35" y2="40" gradientUnits="userSpaceOnUse">
<stop stop-color="#BA23C7"/>
<stop offset="1" stop-color="#AC5D00"/>
</linearGradient>
<clipPath id="clip0_11458_17787">
<rect width="18" height="18" fill="white" transform="translate(11 11)"/>
</clipPath>
</defs>
</svg>
