<svg width="40" height="40" viewBox="0 0 40 40" fill="none" xmlns="http://www.w3.org/2000/svg">
<rect width="40" height="40" rx="20" fill="#1B2533"/>
<path d="M29.003 26.3804H26.722C25.859 26.3804 25.599 25.6814 24.052 24.1334C22.7 22.8304 22.129 22.6684 21.787 22.6684C21.314 22.6684 21.185 22.7984 21.185 23.4494V25.5014C21.185 26.0564 21.005 26.3814 19.555 26.3814C18.1483 26.2869 16.7842 25.8595 15.575 25.1345C14.3658 24.4095 13.3461 23.4076 12.6 22.2114C10.8284 20.0064 9.59571 17.4184 9 14.6534C9 14.3114 9.13 14.0014 9.782 14.0014H12.062C12.648 14.0014 12.859 14.2624 13.089 14.8654C14.196 18.1234 16.085 20.9574 16.852 20.9574C17.146 20.9574 17.274 20.8274 17.274 20.0944V16.7384C17.177 15.2074 16.364 15.0784 16.364 14.5244C16.3743 14.3782 16.4411 14.2418 16.5504 14.1441C16.6596 14.0465 16.8026 13.9953 16.949 14.0014H20.533C21.023 14.0014 21.185 14.2454 21.185 14.8314V19.3614C21.185 19.8504 21.395 20.0124 21.543 20.0124C21.837 20.0124 22.063 19.8504 22.602 19.3124C23.7574 17.9033 24.7013 16.3335 25.404 14.6524C25.4759 14.4505 25.6119 14.2777 25.7912 14.1604C25.9705 14.043 26.1832 13.9875 26.397 14.0024H28.678C29.362 14.0024 29.507 14.3444 29.362 14.8324C28.5324 16.6908 27.5058 18.4549 26.3 20.0944C26.054 20.4694 25.956 20.6644 26.3 21.1044C26.526 21.4464 27.326 22.1144 27.863 22.7494C28.645 23.5294 29.294 24.4314 29.785 25.4194C29.981 26.0554 29.654 26.3804 29.003 26.3804Z" fill="#63BBF4"/>
</svg>
