<svg width="40" height="40" viewBox="0 0 40 40" fill="none" xmlns="http://www.w3.org/2000/svg">
<rect width="40" height="40" rx="20" fill="#1B2B33"/>
<path fill-rule="evenodd" clip-rule="evenodd" d="M26.0319 13.1095C26.2655 13.0125 26.5212 12.9791 26.7724 13.0127C27.0236 13.0462 27.261 13.1455 27.46 13.3002C27.659 13.4549 27.8124 13.6594 27.904 13.8923C27.9957 14.1252 28.0223 14.3781 27.9812 14.6247L25.8372 27.4443C25.6292 28.6808 24.2528 29.39 23.1023 28.774C22.14 28.2587 20.7107 27.4648 19.425 26.6363C18.7822 26.2217 16.8131 24.8938 17.0551 23.9488C17.263 23.1409 20.5717 20.1049 22.4624 18.2999C23.2044 17.5908 22.866 17.1817 21.9897 17.834C19.8126 19.4536 16.3196 21.9165 15.1644 22.6098C14.1453 23.2211 13.6141 23.3254 12.9788 23.2211C11.8198 23.031 10.745 22.7365 9.86771 22.3777C8.68226 21.8932 8.73993 20.2866 9.86676 19.8188L26.0319 13.1095Z" fill="#1BBCEE"/>
<path d="M33.6667 31.5882H28.3333C27.9797 31.5882 27.6406 31.7246 27.3905 31.9673C27.1405 32.21 27 32.5391 27 32.8824V35.4706C27 35.8138 27.1405 36.143 27.3905 36.3857C27.6406 36.6284 27.9797 36.7647 28.3333 36.7647H29V39.3529C29 39.5246 29.0702 39.6891 29.1953 39.8105C29.3203 39.9318 29.4899 40 29.6667 40H31C31.1768 40 31.3464 39.9318 31.4714 39.8105C31.5964 39.6891 31.6667 39.5246 31.6667 39.3529V36.7647H33.6667L37 39.3529V29L33.6667 31.5882ZM40 34.1765C40 35.2829 39.36 36.2859 38.3333 36.7647V31.5882C39.3533 32.0735 40 33.0765 40 34.1765Z" fill="white"/>
</svg>
