<svg class="icon icon-menu_sport">
    <use xlink:href="#sport">
        <symbol viewBox="0 0 25 24" id="sport" xmlns="http://www.w3.org/2000/svg"><path d="M12.496 24a11.989 11.989 0 005.125-1.142A12.042 12.042 0 0024.5 12c0-.869-.093-1.735-.278-2.583a11.998 11.998 0 00-8.984-9.1A12.003 12.003 0 00.58 10.62 11.998 11.998 0 0012.496 24zm0-22.708c.162 0 .322.004.481.012l-.97 1.121c-2.57 0-4.512 1.191-5.167 1.652l-1.37-.154a10.63 10.63 0 017.026-2.63zm7.573 3.136a10.66 10.66 0 012.704 4.555l-1.317-.395c-.289-.89-.915-1.87-1.86-2.914-.44-.485-.91-.942-1.407-1.367l-.17-1.49a10.81 10.81 0 012.053 1.611h-.003zm-.592 15.694l-4.793-.265-1.099-2.913 2.968-3.283c.246-.066 2.735-.719 3.77-1.014l1.811 4.028a10.748 10.748 0 01-2.064 2.89c-.192.196-.389.381-.593.557zM6.926 4.508c.399-.297 2.413-1.69 5.093-1.684l2.458 2.602a.2.2 0 00-.058.1l-.93 4.09a.197.197 0 000 .085l-3.897.855-3.413-2.848a.205.205 0 00-.078-.039l.825-3.161zm11.048.147c.434.37 2.62 2.316 3.147 4.214v.005l-.845 3.374c-.846.242-2.953.798-3.628.976l-2.838-3.41a.196.196 0 00.068-.11l.93-4.09a.19.19 0 000-.095l3.166-.864zM6.158 17.14a.192.192 0 00.09-.022l2.837-1.445a.2.2 0 00.095-.108l4.016 1.487 1.108 2.932-2.986 2.656a10.6 10.6 0 01-5.155-2.011l-.005-3.49zm-.284-9.184a.205.205 0 00.047.059l3.404 2.836-.317 4.446a.202.202 0 00-.105.02l-2.83 1.446a.202.202 0 00-.08.075L2.988 15.03c-.474-2.169-.14-4.586.026-5.524l2.86-1.55zm-3.226 1.29c-.15.772-.574 3.343-.084 5.735l-.273.27a10.785 10.785 0 01.18-7.023l.177 1.017z"></path></symbol>
    </use>
</svg>