<svg class="icon icon-menu_tournament" data-light="tour-cup-hall" data-dark="tour-cup" data-slotoshi="slotoshi-tour-stroke" data-flint="flint-tour-stroke">
    <use xlink:href="#tour-cup">
        <symbol viewBox="0 0 25.279 23.334" id="tour-cup" xmlns="http://www.w3.org/2000/svg">
            <path d="M24.853 4.314a1.402 1.402 0 00-1.032-.426h-4.375V2.431c0-.668-.238-1.241-.714-1.717A2.339 2.339 0 0017.014 0h-8.75c-.668 0-1.24.237-1.716.714a2.338 2.338 0 00-.715 1.717v1.458H1.458c-.405 0-.749.142-1.033.426A1.404 1.404 0 000 5.347v1.945c0 .719.211 1.443.631 2.173.417.729.986 1.387 1.701 1.975.714.587 1.587 1.081 2.628 1.48 1.038.4 2.13.626 3.274.676a8.105 8.105 0 001.442 1.443c.385.345.651.712.798 1.102.145.391.221.844.221 1.359 0 .547-.155 1.008-.465 1.383-.311.375-.802.563-1.48.563-.76 0-1.435.23-2.028.691-.593.46-.889 1.04-.889 1.739v.972a.472.472 0 00.488.487H18.96a.475.475 0 00.35-.137.475.475 0 00.137-.35v-.972c0-.699-.297-1.279-.89-1.739a3.212 3.212 0 00-2.027-.691c-.679 0-1.172-.188-1.481-.563-.312-.375-.463-.836-.463-1.383 0-.516.073-.969.22-1.359.145-.39.413-.757.798-1.102a8.045 8.045 0 001.443-1.443 10.269 10.269 0 003.273-.676c1.039-.399 1.914-.894 2.629-1.48a7.266 7.266 0 001.701-1.975c.417-.729.631-1.454.631-2.173V5.347a1.414 1.414 0 00-.428-1.033zM3.38 9.753c-.957-.852-1.435-1.672-1.435-2.461V5.834h3.888c0 2.116.375 3.995 1.125 5.636-1.429-.294-2.621-.866-3.578-1.717zm19.954-2.461c0 .789-.479 1.609-1.437 2.461-.957.851-2.149 1.423-3.576 1.717.749-1.641 1.124-3.52 1.124-5.636h3.889v1.458z"></path>
        </symbol>
    </use>
</svg>